{"accessors" : [{"bufferView" : 0, "byteOffset" : 0, "componentType" : 5123, "count" : 5400, "type" : "SCALAR", "max" : [4498], "min" : [0]}, {"bufferView" : 1, "byteOffset" : 0, "componentType" : 5126, "count" : 4499, "type" : "VEC3", "max" : [1.0608762502670288, 1.0608758926391602, 0], "min" : [-1.0608758926391602, -1.0608760118484497, -0.12015828490257263], "name" : "POSITION"}, {"bufferView" : 1, "byteOffset" : 12, "componentType" : 5126, "count" : 4499, "type" : "VEC3", "max" : [0.9981698989868164, 0.9981697797775269, -0.059635911136865616], "min" : [-0.9981696605682373, -0.9981699585914612, -1.0000044107437134], "name" : "NORMAL"}, {"bufferView" : 0, "byteOffset" : 10800, "componentType" : 5123, "count" : 5040, "type" : "SCALAR", "max" : [4239], "min" : [0]}, {"bufferView" : 2, "byteOffset" : 0, "componentType" : 5126, "count" : 4240, "type" : "VEC3", "max" : [0.6374251842498779, 0.637424647808075, 1], "min" : [-0.6374240517616272, -0.6374240517616272, 0.7705131769180298], "name" : "POSITION"}, {"bufferView" : 2, "byteOffset" : 12, "componentType" : 5126, "count" : 4240, "type" : "VEC3", "max" : [0.6127331852912903, 0.6127322912216187, 0.9995107054710388], "min" : [-0.6127325892448425, -0.6127324104309082, 0.7899281978607178], "name" : "NORMAL"}, {"bufferView" : 0, "byteOffset" : 20880, "componentType" : 5123, "count" : 3120, "type" : "SCALAR", "max" : [2624], "min" : [0]}, {"bufferView" : 3, "byteOffset" : 0, "componentType" : 5126, "count" : 2625, "type" : "VEC3", "max" : [0.5944786667823792, 0.5944779515266418, 1], "min" : [-0.003706604242324829, -0.003707319498062134, 0.6925976276397705], "name" : "POSITION"}, {"bufferView" : 3, "byteOffset" : 12, "componentType" : 5126, "count" : 2625, "type" : "VEC3", "max" : [0.9994677901268005, 0.9994677305221558, 0.9995112419128418], "min" : [-0.9979222416877747, -0.9979221224784851, -0.999511182308197], "name" : "NORMAL"}, {"bufferView" : 0, "byteOffset" : 27120, "componentType" : 5123, "count" : 3120, "type" : "SCALAR", "max" : [2624], "min" : [0]}, {"bufferView" : 4, "byteOffset" : 0, "componentType" : 5126, "count" : 2625, "type" : "VEC3", "max" : [0.5944786667823792, 0.5944779515266418, 1], "min" : [-0.003706604242324829, -0.003707319498062134, 0.6925976276397705], "name" : "POSITION"}, {"bufferView" : 4, "byteOffset" : 12, "componentType" : 5126, "count" : 2625, "type" : "VEC3", "max" : [0.9994677901268005, 0.9994677305221558, 0.9995112419128418], "min" : [-0.9979222416877747, -0.9979221224784851, -0.999511182308197], "name" : "NORMAL"}, {"bufferView" : 0, "byteOffset" : 33360, "componentType" : 5123, "count" : 3120, "type" : "SCALAR", "max" : [2624], "min" : [0]}, {"bufferView" : 5, "byteOffset" : 0, "componentType" : 5126, "count" : 2625, "type" : "VEC3", "max" : [0.5944786667823792, 0.5944779515266418, 1], "min" : [-0.003706604242324829, -0.003707319498062134, 0.6925976276397705], "name" : "POSITION"}, {"bufferView" : 5, "byteOffset" : 12, "componentType" : 5126, "count" : 2625, "type" : "VEC3", "max" : [0.9994677901268005, 0.9994677305221558, 0.9995112419128418], "min" : [-0.9979222416877747, -0.9979221224784851, -0.999511182308197], "name" : "NORMAL"}, {"bufferView" : 0, "byteOffset" : 39600, "componentType" : 5123, "count" : 3120, "type" : "SCALAR", "max" : [2624], "min" : [0]}, {"bufferView" : 6, "byteOffset" : 0, "componentType" : 5126, "count" : 2625, "type" : "VEC3", "max" : [0.5944786667823792, 0.5944779515266418, 1], "min" : [-0.003706604242324829, -0.003707319498062134, 0.6925976276397705], "name" : "POSITION"}, {"bufferView" : 6, "byteOffset" : 12, "componentType" : 5126, "count" : 2625, "type" : "VEC3", "max" : [0.9994677901268005, 0.9994677305221558, 0.9995112419128418], "min" : [-0.9979222416877747, -0.9979221224784851, -0.999511182308197], "name" : "NORMAL"}, {"bufferView" : 0, "byteOffset" : 45840, "componentType" : 5123, "count" : 9000, "type" : "SCALAR", "max" : [7497], "min" : [0]}, {"bufferView" : 7, "byteOffset" : 0, "componentType" : 5126, "count" : 7498, "type" : "VEC3", "max" : [1.0000017881393433, 1.0000009536743164, 0.7705131769180298], "min" : [-1, -1.0000007152557373, -4.0133926404450904E-07], "name" : "POSITION"}, {"bufferView" : 7, "byteOffset" : 12, "componentType" : 5126, "count" : 7498, "type" : "VEC3", "max" : [1.0000044107437134, 1.0000044107437134, 0.9181997776031494], "min" : [-1.0000044107437134, -1.0000044107437134, 0], "name" : "NORMAL"}, {"bufferView" : 0, "byteOffset" : 63840, "componentType" : 5123, "count" : 144, "type" : "SCALAR", "max" : [122], "min" : [0]}, {"bufferView" : 8, "byteOffset" : 0, "componentType" : 5126, "count" : 123, "type" : "VEC3", "max" : [0.3683730959892273, 0.5386508703231812, 0], "min" : [-0.36852890253067017, -0.03543710708618164, -0.04066580906510353], "name" : "POSITION"}, {"bufferView" : 8, "byteOffset" : 12, "componentType" : 5126, "count" : 123, "type" : "VEC3", "max" : [0.8867328763008118, 0.9221306443214417, 1.0000044107437134], "min" : [-0.904693067073822, -0.8519068956375122, -1.0000044107437134], "name" : "NORMAL"}, {"bufferView" : 0, "byteOffset" : 64128, "componentType" : 5123, "count" : 4164, "type" : "SCALAR", "max" : [3646], "min" : [0]}, {"bufferView" : 9, "byteOffset" : 0, "componentType" : 5126, "count" : 3647, "type" : "VEC3", "max" : [0.29736489057540894, 0.5540449619293213, 0], "min" : [-0.26541441679000854, -0.03396860137581825, -0.03855137526988983], "name" : "POSITION"}, {"bufferView" : 9, "byteOffset" : 12, "componentType" : 5126, "count" : 3647, "type" : "VEC3", "max" : [0.997915506362915, 0.9760579466819763, 1.0000044107437134], "min" : [-0.9362315535545349, -0.9474340677261353, -1.0000044107437134], "name" : "NORMAL"}, {"bufferView" : 0, "byteOffset" : 72456, "componentType" : 5123, "count" : 144, "type" : "SCALAR", "max" : [124], "min" : [0]}, {"bufferView" : 10, "byteOffset" : 0, "componentType" : 5126, "count" : 125, "type" : "VEC3", "max" : [0.34930118918418884, 0.5649327039718628, 0], "min" : [-0.343325674533844, -0.013226225972175598, -0.043111853301525116], "name" : "POSITION"}, {"bufferView" : 10, "byteOffset" : 12, "componentType" : 5126, "count" : 125, "type" : "VEC3", "max" : [0.9557458162307739, 0.9141620993614197, 1.0000044107437134], "min" : [-0.9532272815704346, -0.9589088559150696, -1.0000044107437134], "name" : "NORMAL"}], "asset" : {"generator" : "Aspose.3D 23.7.0", "version" : "2.0"}, "buffers" : [{"uri" : "data:application/octet-stream;base64,", "byteLength" : 945716}], "bufferViews" : [{"buffer" : 0, "byteOffset" : 0, "byteLength" : 72744, "target" : 34963}, {"buffer" : 0, "byteOffset" : 72748, "byteLength" : 129600, "byteStride" : 24, "target" : 34962}, {"buffer" : 0, "byteOffset" : 202352, "byteLength" : 120960, "byteStride" : 24, "target" : 34962}, {"buffer" : 0, "byteOffset" : 323316, "byteLength" : 74880, "byteStride" : 24, "target" : 34962}, {"buffer" : 0, "byteOffset" : 398200, "byteLength" : 74880, "byteStride" : 24, "target" : 34962}, {"buffer" : 0, "byteOffset" : 473084, "byteLength" : 74880, "byteStride" : 24, "target" : 34962}, {"buffer" : 0, "byteOffset" : 547968, "byteLength" : 74880, "byteStride" : 24, "target" : 34962}, {"buffer" : 0, "byteOffset" : 622852, "byteLength" : 216000, "byteStride" : 24, "target" : 34962}, {"buffer" : 0, "byteOffset" : 838856, "byteLength" : 3456, "byteStride" : 24, "target" : 34962}, {"buffer" : 0, "byteOffset" : 842316, "byteLength" : 99936, "byteStride" : 24, "target" : 34962}, {"buffer" : 0, "byteOffset" : 942256, "byteLength" : 3456, "byteStride" : 24, "target" : 34962}], "materials" : [{"name" : "Material.029", "pbrMetallicRoughness" : {"baseColorFactor" : [0.8, 0.8, 0.8, 1], "metallicFactor" : 0.3421997458487618, "roughnessFactor" : 0.1050729924788258}, "emissiveFactor" : [0, 0, 0], "alphaMode" : "OPAQUE", "doubleSided" : true}, {"name" : "Material.025", "pbrMetallicRoughness" : {"baseColorFactor" : [0.8, 0.8, 0.8, 1], "metallicFactor" : 1, "roughnessFactor" : 0}, "emissiveFactor" : [0, 0, 0], "alphaMode" : "OPAQUE", "doubleSided" : true}, {"name" : "Material.026", "pbrMetallicRoughness" : {"baseColorFactor" : [0.012983000000000007, 0.3139890000000001, 0.6795429999999998, 1], "metallicFactor" : 0, "roughnessFactor" : 0.9381977368351213}, "emissiveFactor" : [0, 0, 0], "alphaMode" : "OPAQUE", "doubleSided" : true}, {"name" : "Material.026", "pbrMetallicRoughness" : {"baseColorFactor" : [0.012983000000000007, 0.3139890000000001, 0.6795429999999998, 1], "metallicFactor" : 0, "roughnessFactor" : 0.9381977368351213}, "emissiveFactor" : [0, 0, 0], "alphaMode" : "OPAQUE", "doubleSided" : true}, {"name" : "Material.027", "pbrMetallicRoughness" : {"baseColorFactor" : [0.8, 0.8, 0.8, 1], "metallicFactor" : 0, "roughnessFactor" : 0.8211145618000169}, "emissiveFactor" : [0, 0, 0], "alphaMode" : "OPAQUE", "doubleSided" : true}, {"name" : "Material.027", "pbrMetallicRoughness" : {"baseColorFactor" : [0.8, 0.8, 0.8, 1], "metallicFactor" : 0, "roughnessFactor" : 0.8211145618000169}, "emissiveFactor" : [0, 0, 0], "alphaMode" : "OPAQUE", "doubleSided" : true}, {"name" : "Material.028", "pbrMetallicRoughness" : {"baseColorFactor" : [0.023651, 0.023651, 0.023651, 1], "metallicFactor" : 1, "roughnessFactor" : 0}, "emissiveFactor" : [0, 0, 0], "alphaMode" : "OPAQUE", "doubleSided" : true}, {"name" : "White.004", "pbrMetallicRoughness" : {"baseColorFactor" : [0.8, 0.8, 0.8, 1], "metallicFactor" : 0, "roughnessFactor" : 0.06859195349883565}, "emissiveFactor" : [0, 0, 0], "alphaMode" : "OPAQUE", "doubleSided" : true}, {"name" : "White.004", "pbrMetallicRoughness" : {"baseColorFactor" : [0.8, 0.8, 0.8, 1], "metallicFactor" : 0, "roughnessFactor" : 0.06859195349883565}, "emissiveFactor" : [0, 0, 0], "alphaMode" : "OPAQUE", "doubleSided" : true}, {"name" : "White.004", "pbrMetallicRoughness" : {"baseColorFactor" : [0.8, 0.8, 0.8, 1], "metallicFactor" : 0, "roughnessFactor" : 0.06859195349883565}, "emissiveFactor" : [0, 0, 0], "alphaMode" : "OPAQUE", "doubleSided" : true}], "meshes" : [{"primitives" : [{"attributes" : {"POSITION" : 1, "NORMAL" : 2}, "indices" : 0, "material" : 0, "mode" : 4}]}, {"primitives" : [{"attributes" : {"POSITION" : 4, "NORMAL" : 5}, "indices" : 3, "material" : 1, "mode" : 4}]}, {"primitives" : [{"attributes" : {"POSITION" : 7, "NORMAL" : 8}, "indices" : 6, "material" : 2, "mode" : 4}]}, {"primitives" : [{"attributes" : {"POSITION" : 10, "NORMAL" : 11}, "indices" : 9, "material" : 3, "mode" : 4}]}, {"primitives" : [{"attributes" : {"POSITION" : 13, "NORMAL" : 14}, "indices" : 12, "material" : 4, "mode" : 4}]}, {"primitives" : [{"attributes" : {"POSITION" : 16, "NORMAL" : 17}, "indices" : 15, "material" : 5, "mode" : 4}]}, {"primitives" : [{"attributes" : {"POSITION" : 19, "NORMAL" : 20}, "indices" : 18, "material" : 6, "mode" : 4}]}, {"primitives" : [{"attributes" : {"POSITION" : 22, "NORMAL" : 23}, "indices" : 21, "material" : 7, "mode" : 4}]}, {"primitives" : [{"attributes" : {"POSITION" : 25, "NORMAL" : 26}, "indices" : 24, "material" : 8, "mode" : 4}]}, {"primitives" : [{"attributes" : {"POSITION" : 28, "NORMAL" : 29}, "indices" : 27, "material" : 9, "mode" : 4}]}], "nodes" : [{"mesh" : 0, "name" : "Circle.004_Material.029_0"}, {"children" : [0], "matrix" : [58.13672657490364, -1.1574270683764827, -1.1718276956523632, 0, -0.47074981269503013, 27.976207554087683, -50.98725116425548, 0, 1.578357695768682, 50.976312902911815, 27.955633339253062, 0, -2.4750678539276123, 0.18405579030513763, -0.653386116027832, 1], "name" : "Circle.004"}, {"mesh" : 1, "name" : "Sphere.024_Material.025_0"}, {"children" : [2], "matrix" : [58.735508232422, -1.1693480370874776, -1.1838969842289158, 0, -0.4755986922716969, 28.26437179289002, -51.5124368025149, 0, 0.13978954007365038, 4.514791136668227, 2.475931240072035, 0, -2.487049102783203, -0.18695928156375885, -0.8559226989746094, 1], "name" : "Sphere.024"}, {"mesh" : 2, "name" : "Sphere.025_Material.026_0"}, {"children" : [4], "matrix" : [-0.5414318497461208, 28.879598975787218, -52.63057220522765, 0, -60.01126105994461, 1.168083088705406, 1.258313874970876, 0, 0.13948764923450238, 4.504931928746618, 2.4705242411665282, 0, -3.0055689811706543, 0.44682884216308594, -1.1031627655029297, 1], "name" : "Sphere.025"}, {"mesh" : 3, "name" : "Sphere.026_Material.026_0"}, {"children" : [6], "matrix" : [0.5415497168526751, -28.879591258792022, 52.630562172734614, 0, 60.01126784927744, -1.1680192251938482, -1.258413366370368, 0, 0.1394869317848819, 4.5049321543248375, 2.470523870338549, 0, -1.9445229768753052, -0.07871128618717194, -0.20287036895751953, 1], "name" : "Sphere.026"}, {"mesh" : 4, "name" : "Sphere.027_Material.027_0"}, {"children" : [8], "matrix" : [-60.01173864224566, 1.1947631869320128, 1.2097313808371115, 0, 0.4860256250330823, -28.87850038745592, 52.63169406715319, 0, 0.13948929612011868, 4.504930578642053, 2.470523633963611, 0, -2.995579242706299, -0.05561448633670807, -0.18129348754882812, 1], "name" : "Sphere.027"}, {"mesh" : 5, "name" : "Sphere.028_Material.027_0"}, {"children" : [10], "matrix" : [60.01172574888286, -1.1947558779776053, -1.209620947712458, 0, -0.48593259631568386, 28.878505748086962, -52.631709390180156, 0, 0.1394842480892792, 4.504931103189266, 2.4705239545122577, 0, -1.9546806812286377, 0.4263784885406494, -1.124739646911621, 1], "name" : "Sphere.028"}, {"mesh" : 6, "name" : "Sphere.029_Material.028_0"}, {"children" : [12], "matrix" : [58.42033851527739, -1.1630734154627858, -1.1775444030794626, 0, -0.4730467978071033, 28.112709496388607, -51.23602893916978, 0, 0.13907780490042806, 4.491804034958709, 2.463325012738415, 0, -2.4750678539276123, 0.18405579030513763, -0.653386116027832, 1], "name" : "Sphere.029"}, {"mesh" : 7, "name" : "Text.012_White.004_0"}, {"children" : [14], "matrix" : [20.64027246903225, -12.545637882672073, 21.711279084540102, 0, 24.765639183451782, 5.793199053131711, -20.19642239436697, 0, 3.9288388013282995, 29.391133408449896, 13.248331074248565, 0, 28.013442993164062, 14.976588249206543, -20.3824520111084, 1], "name" : "Text.012"}, {"mesh" : 8, "name" : "Text.013_White.004_0"}, {"children" : [16], "matrix" : [21.575895829815913, 12.753238876613148, -24.473303387750487, 0, -24.23737119139694, 6.357560165167826, -18.054919091000198, 0, -2.4176634340411014, 31.81923909032094, 14.449831188849943, 0, -32.28563690185547, 16.568140029907227, -19.877910614013672, 1], "name" : "Text.013"}, {"mesh" : 9, "name" : "Text.014_White.004_0"}, {"children" : [18], "matrix" : [31.158703455899435, -0.6203295046016901, -0.6280476593286455, 0, -0.3535133270867137, 11.552653569385502, -28.94918645405082, 0, 0.8088763685531368, 28.944698293166848, 11.540984891074233, 0, -2.668628454208374, 22.366329193115234, -32.12406539916992, 1], "name" : "Text.014"}, {"children" : [1, 3, 5, 7, 9, 11, 13, 15, 17, 19], "name" : "RootNode"}, {"children" : [20], "matrix" : [0.009999999776482582, 0, 0, 0, 0, 0, 0.009999999776482582, 0, 0, -0.009999999776482582, 0, 0, 0, 0, 0, 1], "name" : "BMW Emblem.fbx"}, {"children" : [21], "matrix" : [1, 0, 0, 0, 0, 2.220446049250313E-16, -1, 0, 0, 1, 2.220446049250313E-16, 0, 0, 0, 0, 1], "name" : "Sketchfab_model"}], "scene" : 0, "scenes" : [{"nodes" : [22]}]}